<svg width="224" height="60" viewBox="0 0 224 60" fill="none" xmlns="http://www.w3.org/2000/svg">
<path d="M44 30H36L30 48L18 12L12 30H4" stroke="#F3F3F3" stroke-width="4" stroke-linecap="round" stroke-linejoin="round"/>
<path d="M54.25 47V12H61V25.7L73.65 12H82L67 28L82.35 47H74L61 31.1V47H54.25ZM81.3652 47L92.4652 12H103.515L114.565 47H107.415L98.1152 15.95H97.9152L88.4152 47H81.3652ZM87.0152 36.95L88.7652 31.7H106.615L108.365 36.95H87.0152ZM115.166 47V12H121.916V47H115.166ZM124.896 47V12H137.996C140.796 12 143.113 12.4833 144.946 13.45C146.813 14.4167 148.196 15.7167 149.096 17.35C149.996 18.95 150.446 20.7333 150.446 22.7C150.446 24.5667 149.996 26.3167 149.096 27.95C148.23 29.55 146.863 30.85 144.996 31.85C143.163 32.8167 140.796 33.3 137.896 33.3H131.646V47H124.896ZM143.046 47L135.846 31.6H143.146L150.746 47H143.046ZM131.646 28.4H137.546C139.613 28.4 141.13 27.9 142.096 26.9C143.063 25.9 143.546 24.5833 143.546 22.95C143.546 21.3167 143.063 20.0333 142.096 19.1C141.13 18.1333 139.613 17.65 137.546 17.65H131.646V28.4ZM169.304 47.6C165.837 47.6 162.787 46.8333 160.154 45.3C157.554 43.7667 155.504 41.65 154.004 38.95C152.504 36.2167 151.754 33.0667 151.754 29.5C151.754 25.9333 152.504 22.8 154.004 20.1C155.504 17.3667 157.554 15.2333 160.154 13.7C162.787 12.1667 165.837 11.4 169.304 11.4C172.804 11.4 175.871 12.1667 178.504 13.7C181.171 15.2333 183.237 17.3667 184.704 20.1C186.171 22.8 186.904 25.9333 186.904 29.5C186.904 33.0667 186.171 36.2167 184.704 38.95C183.237 41.65 181.171 43.7667 178.504 45.3C175.871 46.8333 172.804 47.6 169.304 47.6ZM169.304 41.55C171.504 41.55 173.404 41.0667 175.004 40.1C176.604 39.1 177.837 37.7 178.704 35.9C179.571 34.1 180.004 31.9667 180.004 29.5C180.004 27 179.571 24.8667 178.704 23.1C177.837 21.3 176.604 19.9167 175.004 18.95C173.404 17.9833 171.504 17.5 169.304 17.5C167.171 17.5 165.304 17.9833 163.704 18.95C162.104 19.9167 160.854 21.3 159.954 23.1C159.087 24.8667 158.654 27 158.654 29.5C158.654 31.9667 159.087 34.1 159.954 35.9C160.854 37.7 162.104 39.1 163.704 40.1C165.304 41.0667 167.171 41.55 169.304 41.55ZM201.676 47.6C199.142 47.6 196.876 47.1667 194.876 46.3C192.909 45.4333 191.359 44.1667 190.226 42.5C189.092 40.8333 188.492 38.8167 188.426 36.45H195.576C195.609 37.4833 195.859 38.4167 196.326 39.25C196.826 40.0833 197.526 40.75 198.426 41.25C199.326 41.7167 200.409 41.95 201.676 41.95C202.709 41.95 203.626 41.8 204.426 41.5C205.226 41.1667 205.842 40.7 206.276 40.1C206.742 39.4667 206.976 38.6833 206.976 37.75C206.976 36.75 206.726 35.9167 206.226 35.25C205.759 34.5833 205.092 34.0167 204.226 33.55C203.359 33.05 202.376 32.6167 201.276 32.25C200.209 31.85 199.092 31.45 197.926 31.05C195.092 30.0833 192.926 28.8333 191.426 27.3C189.959 25.7667 189.226 23.75 189.226 21.25C189.226 19.2167 189.726 17.4667 190.726 16C191.726 14.5333 193.126 13.4 194.926 12.6C196.726 11.8 198.776 11.4 201.076 11.4C203.442 11.4 205.526 11.8167 207.326 12.65C209.126 13.45 210.542 14.6167 211.576 16.15C212.609 17.6833 213.159 19.4833 213.226 21.55H205.976C205.942 20.65 205.709 19.8667 205.276 19.2C204.876 18.5333 204.292 18 203.526 17.6C202.792 17.2 201.926 17 200.926 17C200.059 16.9667 199.259 17.1 198.526 17.4C197.826 17.6667 197.276 18.0833 196.876 18.65C196.476 19.1833 196.276 19.9 196.276 20.8C196.276 21.6333 196.459 22.3333 196.826 22.9C197.226 23.4667 197.776 23.9667 198.476 24.4C199.209 24.8 200.059 25.2 201.026 25.6C202.026 25.9667 203.142 26.3667 204.376 26.8C206.142 27.4 207.759 28.1167 209.226 28.95C210.692 29.75 211.859 30.8 212.726 32.1C213.626 33.4 214.076 35.0833 214.076 37.15C214.076 39.0167 213.592 40.75 212.626 42.35C211.692 43.9167 210.309 45.1833 208.476 46.15C206.642 47.1167 204.376 47.6 201.676 47.6Z" fill="#F3F3F3"/>
<path d="M217.824 50.4453V54H217.216V50.4453H217.824ZM218.939 50.4453V50.9336H216.11V50.4453H218.939ZM220.157 50.4453H220.704L221.732 53.187L222.757 50.4453H223.304L221.947 54H221.512L220.157 50.4453ZM219.908 50.4453H220.428L220.519 52.8184V54H219.908V50.4453ZM223.033 50.4453H223.556V54H222.943V52.8184L223.033 50.4453Z" fill="#F3F3F3"/>
</svg>
